<svg width="104" height="32" viewBox="0 0 104 32" xmlns="http://www.w3.org/2000/svg">
    <defs>
        <filter x="-7.1%" y="-32%" width="114.1%" height="164.6%" filterUnits="objectBoundingBox" id="a">
            <feOffset in="SourceAlpha" result="shadowOffsetOuter1"/>
            <feGaussianBlur stdDeviation="1.5" in="shadowOffsetOuter1" result="shadowBlurOuter1"/>
            <feColorMatrix values="0 0 0 0 0 0 0 0 0 0 0 0 0 0 0 0 0 0 1 0" in="shadowBlurOuter1"
                           result="shadowMatrixOuter1"/>
            <feMerge>
                <feMergeNode in="shadowMatrixOuter1"/>
                <feMergeNode in="SourceGraphic"/>
            </feMerge>
        </filter>
    </defs>
    <g filter="url(#a)" transform="translate(6.031 5.357)" fill="#FFF" fill-rule="evenodd">
        <path d="M11.948.911c.148.046.304.046.505.092.104 0 .2.092.2.176.052.177.148.353.2.576.053.092 0 .176-.104.13-.148-.046-.305-.046-.453-.092-.105 0-.148-.092-.2-.176-.053-.177-.148-.4-.2-.576-.053-.092 0-.176.052-.13M11.989-.09c.141.047.34.094.482.133.1 0 .192.132.192.225.05.133.141.32.191.498.05.093 0 .132-.1.132a1.463 1.463 0 0 0-.482-.093c-.1 0-.192-.094-.192-.226-.05-.178-.141-.357-.191-.583-.042-.039.008-.132.1-.085M12.944.898c.14.045.34.09.48.128.1.045.19.128.19.218.1.173.141.346.24.526.05.09 0 .128-.099.128-.14-.045-.34-.09-.48-.128-.1 0-.19-.128-.19-.218-.05-.173-.141-.346-.19-.526-.05-.083 0-.128.049-.128M15.975.898c.144.044.347.125.49.213.102.045.195.125.195.214.05.169.101.301.194.47.05.089 0 .126-.101.089-.144-.088-.347-.125-.49-.17-.102-.043-.195-.124-.195-.213a2.22 2.22 0 0 0-.194-.47c.008-.133.05-.133.101-.133"/>
        <path d="M11.948.91c.148.047.304.047.505.093.104 0 .2.093.2.224.052.177.148.355.2.54.053.092 0 .131-.104.131a1.578 1.578 0 0 0-.453-.093c-.105 0-.148-.092-.2-.177-.053-.177-.148-.355-.2-.579-.053-.092 0-.185.052-.139M13.975 1.915c.144.046.347.093.49.132.102 0 .195.092.195.178.05.178.143.356.194.541.05.093 0 .132-.101.132a1.826 1.826 0 0 0-.49-.093c-.102 0-.195-.093-.195-.178-.05-.178-.144-.356-.194-.542 0-.17.05-.216.101-.17"/>
        <path d="M13.993 1.898c.14.048.34.097.48.137.1.049.19.137.19.234.05.186.142.371.191.517.05.097 0 .137-.1.097-.14-.049-.339-.097-.48-.138-.099 0-.19-.096-.19-.185-.05-.186-.141-.371-.19-.565-.05-.049 0-.097.099-.097M14.993 1.916c.14.045.34.09.48.174.1.045.19.128.19.219.05.174.1.31.191.484.05.09 0 .128-.1.09-.14-.045-.339-.09-.48-.173-.099-.046-.19-.129-.19-.22-.05-.173-.141-.347-.19-.483-.05-.091 0-.137.099-.091"/>
        <path d="M15.989 2.916c.141.045.34.128.482.174.1.045.192.128.192.219.05.174.1.31.191.484.05.09 0 .128-.1.09-.141-.09-.341-.128-.482-.173-.1-.046-.192-.129-.192-.22-.05-.173-.1-.31-.191-.483-.042-.091.008-.137.1-.091M14.989 2.917c.141.049.34.098.482.138.1.049.192.138.192.187.05.186.141.372.191.518.05.098 0 .138-.1.138-.141-.049-.341-.097-.482-.138-.1 0-.192-.097-.192-.186-.05-.187-.141-.373-.191-.568-.042-.089.008-.137.1-.089"/>
        <path d="M14.975 2.914c.144.046.347.091.49.175.102.045.195.128.195.22.05.173.143.31.194.484.05.09 0 .128-.101.09-.144-.045-.347-.09-.49-.128-.102-.046-.195-.129-.195-.174-.05-.174-.144-.349-.194-.485.008-.182.05-.227.101-.182M13.974 3.898c.144.05.296.05.49.098.102 0 .195.099.195.189.051.188.144.377.195.574.05.098 0 .14-.102.14-.143-.05-.296-.05-.44-.1-.101 0-.143-.098-.194-.188-.051-.188-.144-.377-.195-.574-.093-.09-.042-.139.05-.139M14.989 3.898c.141.05.34.1.482.14.1 0 .192.1.192.19.05.19.141.38.191.53.05.099 0 .14-.1.14-.141-.05-.341-.1-.482-.1-.1 0-.192-.098-.192-.19-.05-.19-.141-.38-.191-.578-.042-.082.008-.132.1-.132"/>
        <path d="M15.975 3.916c.144.047.347.095.49.135.102.047.195.134.195.23.05.182.143.324.194.507.05.095 0 .134-.101.095-.144-.048-.347-.095-.49-.135-.102-.047-.195-.095-.195-.182-.05-.183-.144-.365-.194-.507 0-.143 0-.19.101-.143"/>
        <path d="M16.989 4.916c.141.045.34.128.482.174.1.045.192.128.192.219.05.174.1.31.191.484.05.09 0 .128-.1.09-.141-.045-.341-.128-.482-.173-.1-.046-.192-.129-.192-.22-.05-.173-.1-.31-.191-.483-.042-.091.008-.137.1-.091M16.978 1.916c.174.085.31.164.484.249.091.043.175.164.22.207.045.163.09.291.174.455.045.086 0 .086-.09.043a3.2 3.2 0 0 1-.53-.25c-.091-.042-.175-.12-.175-.206a2.25 2.25 0 0 0-.174-.456c-.038-.042.008-.085.091-.042M16.98 2.916c.173.089.309.17.483.216.09.044.174.17.22.215.044.172.09.306.173.477.045.09 0 .09-.09.045-.175-.09-.31-.172-.485-.216-.09-.045-.173-.127-.173-.216-.129-.127-.174-.305-.22-.432-.037-.09 0-.134.091-.09M16.936 3.917c.182.089.325.126.507.215a.52.52 0 0 1 .23.216c.047.171.095.305.182.476.048.09 0 .09-.095.045-.182-.09-.325-.171-.507-.216-.095-.045-.182-.126-.182-.216a2.348 2.348 0 0 0-.182-.476c-.04-.044.008-.09.047-.044"/>
        <path d="M17.97 4.913c.175.09.313.127.489.217a.511.511 0 0 1 .221.216c.046.172.092.306.176.478.046.09 0 .09-.092.045-.176-.09-.313-.127-.489-.217-.091-.045-.176-.127-.176-.216a2.414 2.414 0 0 0-.175-.478c-.092-.045-.046-.082.046-.045M17.98 2.921c.173.079.347.19.483.267.09.04.174.15.22.228.044.15.09.267.173.417.045.078 0 .078-.09.04-.175-.111-.348-.19-.485-.268-.09-.039-.173-.15-.219-.189A1.955 1.955 0 0 0 17.888 3c-.037-.118 0-.118.091-.079M18.995 2.938c.163.098.327.237.498.336.085.069.163.167.206.202.042.098.085.237.163.37.043.07-.042.07-.12 0-.164-.098-.328-.237-.498-.335-.086-.07-.164-.133-.207-.203a1.683 1.683 0 0 0-.163-.37c0-.035.042-.07.12 0"/>
        <path d="M19.05 3.993c.322.25.643.552 1.03.95.189.198 1.794 3.955 1.794 3.955s-1.35-3.005-1.473-3.152c-.32-.354-.708-.648-.963-.898a1.55 1.55 0 0 1-.32-.354c-.067-.147-.134-.355-.189-.501-.133-.147 0-.104.122 0"/>
        <path d="M18.995 3.924c.164.1.327.206.498.34.085.071.163.17.206.206.043.135.085.24.163.375.043.07-.042.07-.12 0-.164-.1-.327-.24-.498-.34a.523.523 0 0 1-.206-.205 1.72 1.72 0 0 0-.163-.376c-.008-.035.035-.035.12 0"/>
        <path d="M20.037 4.999c.25.253.498.56.747.91.146.148 1.09 2.99 1.09 2.99s-.695-2.082-.841-2.23c-.249-.306-.498-.612-.747-.813a1.505 1.505 0 0 1-.249-.359c-.051-.2-.103-.358-.145-.507-.06-.149.042-.096.145.009"/>
        <path d="M18.967 3.914c.176.078.314.19.49.269.092.04.176.15.222.23.046.15.092.269.177.42.046.079 0 .079-.092.04-.177-.08-.353-.191-.49-.27-.093-.04-.177-.112-.177-.19a1.964 1.964 0 0 0-.176-.42c-.085-.08-.046-.119.046-.08M19.995 5.936c.163.098.327.203.498.336.085.07.163.168.206.203.042.133.085.238.163.37.043.07-.042.07-.12 0-.164-.098-.328-.202-.498-.3a.52.52 0 0 1-.207-.203 1.689 1.689 0 0 0-.163-.371c0-.07.042-.105.12-.035M21.037 5.993c.296.206.592.518.888.831.173.152.949 2.074.949 2.074s-.47-1.09-.653-1.242a11.805 11.805 0 0 0-.827-.778 1.556 1.556 0 0 1-.296-.367c-.061-.152-.122-.366-.173-.518-.123-.152 0-.098.112 0M18.965 5.914c.176.078.315.19.491.269.092.04.177.15.223.23.046.15.092.269.177.42.046.079 0 .079-.092.04-.177-.08-.354-.191-.492-.27-.092-.04-.177-.112-.177-.19a1.962 1.962 0 0 0-.176-.42c-.085-.08-.039-.119.046-.08"/>
        <path d="M20.005 5.94c.162.101.323.21.492.311.084.072.162.174.204.21.042.138.084.245.162.383.042.072-.043.072-.12 0-.162-.102-.323-.21-.492-.311-.084-.036-.162-.138-.204-.21a1.787 1.787 0 0 0-.161-.383c-.043-.036.035-.072.12 0"/>
        <path d="M20.997 6.976c.191.218.343.492.534.824.08.16.343 1.098.343 1.098s-.08-.114-.152-.274c-.191-.275-.343-.55-.534-.767-.079-.114-.151-.275-.191-.332-.04-.16-.08-.388-.112-.549-.04-.104.033-.104.112 0M20.07 20.864c.156-.144.32-.246.474-.39a.137.137 0 0 0 0-.195c-.155-.144-.264-.297-.419-.39-.054-.051-.109-.051-.209 0-.154.144-.318.246-.473.347-.054.051-.054.102 0 .145.155.144.264.296.419.44.109.094.163.094.209.043m-1.42-2.994c.155-.144.32-.246.474-.39a.137.137 0 0 0 0-.195c-.11-.144-.264-.246-.373-.39-.055-.051-.11-.051-.155 0-.155.102-.318.246-.473.348-.055.05-.055.101 0 .144.155.144.264.297.418.39 0 .144.055.144.11.093zm.847-.738c.154-.144.264-.296.418-.39a.137.137 0 0 0 0-.195c-.109-.144-.264-.246-.373-.39-.054-.05-.109-.05-.154 0l-.419.39c-.055.051-.055.102 0 .144.11.145.264.246.373.39.046.102.1.102.155.051zm.791-.788c.155-.145.264-.297.373-.441a.137.137 0 0 0 0-.195c-.109-.102-.209-.246-.373-.348-.054-.051-.109-.051-.154 0-.155.144-.264.297-.419.44a.137.137 0 0 0 0 .196c.11.144.264.246.373.39.091.06.146.009.2-.042zm.737-.832c.11-.144.21-.296.373-.491a.137.137 0 0 0 0-.195 2.155 2.155 0 0 1-.318-.348c-.055-.051-.11-.051-.155.05-.11.145-.264.298-.373.442a.137.137 0 0 0 0 .195c.11.102.21.246.373.347-.064.094.046.094.1 0zm.628-.89c.11-.144.21-.348.318-.543a.137.137 0 0 0 0-.195c-.109-.102-.209-.195-.263-.297-.055-.05-.11 0-.155.051-.11.144-.21.348-.373.492a.137.137 0 0 0 0 .195c.109.102.21.195.318.348.055.05.1 0 .155-.051zm.582-.975c.11-.195.155-.39.264-.594.055-.05 0-.144 0-.195l-.264-.246c-.054-.05-.054 0-.109.05-.11.196-.21.349-.318.544a.137.137 0 0 0 0 .195c.109.101.209.195.263.297.055.042.11-.009.164-.051zm.419-1.137c.054-.195.109-.44.154-.687v-.195l-.154-.144s-.055.05-.055.102c-.054.195-.155.39-.21.593a.137.137 0 0 0 0 .196c.055.101.156.144.21.245 0-.008.055-.008.055-.11zm-2.42 5.36c.154-.144.264-.297.418-.44a.137.137 0 0 0 0-.196c-.109-.144-.264-.246-.373-.39-.054-.05-.109-.05-.155 0-.154.144-.263.297-.418.39a.137.137 0 0 0 0 .195c.11.144.264.246.373.39.045.102.1.102.155.051zm.737-.789c.109-.144.263-.296.373-.44a.137.137 0 0 0 0-.196l-.373-.347c-.055-.051-.11-.051-.155 0-.11.144-.264.297-.373.44a.137.137 0 0 0 0 .196c.11.144.264.246.373.39.045.008.1.008.155-.043zm.682-.882c.11-.144.21-.347.318-.491a.137.137 0 0 0 0-.196 2.155 2.155 0 0 1-.318-.347c-.055-.051-.11 0-.155.05-.109.145-.209.348-.373.493a.137.137 0 0 0 0 .195c.11.101.21.246.373.347.055 0 .1 0 .155-.05zm.582-.983c.11-.195.21-.348.264-.543a.137.137 0 0 0 0-.195c-.11-.102-.21-.195-.264-.297-.054-.05-.109 0-.109.05-.11.196-.21.349-.318.544a.137.137 0 0 0 0 .195c.109.101.209.195.318.347 0-.008.055-.05.11-.101zm.473-1.086c.055-.195.155-.39.21-.636v-.195l-.264-.246c-.055-.05-.055 0-.11.102-.054.195-.154.39-.263.593a.137.137 0 0 0 0 .196c.109.101.209.195.264.296.109-.008.163-.008.163-.11zm.373-1.221c.055-.246.055-.492.055-.738 0-.102 0-.195-.055-.195l-.154-.144s-.055.05-.055.144l-.155.687v.195c.055.102.155.144.21.246.1-.051.1-.102.154-.195zm-2.902 6.48c.155-.145.319-.247.419-.39a.137.137 0 0 0 0-.196c-.11-.144-.264-.246-.373-.39-.055-.05-.11-.05-.155 0-.155.144-.319.246-.419.39-.054.051-.054.102 0 .144.155.144.264.297.419.39-.046.051.054.102.11.051zm.792-.78c.109-.145.263-.298.373-.442a.137.137 0 0 0 0-.195c-.11-.144-.264-.246-.373-.39-.055-.051-.11-.051-.155 0-.155.144-.264.297-.419.44a.137.137 0 0 0 0 .196c.11.144.264.246.373.39.037.042.146.042.2 0zm.682-.84c.11-.145.264-.297.373-.492a.137.137 0 0 0 0-.196c-.11-.101-.21-.245-.373-.347-.055-.051-.11-.051-.155.05-.109.145-.264.297-.373.493a.137.137 0 0 0 0 .195c.11.144.264.246.373.39.055-.043.1-.043.155-.094zm.637-.933c.109-.196.209-.348.318-.543a.137.137 0 0 0 0-.195 2.155 2.155 0 0 1-.318-.348c-.055-.05-.11 0-.155.05-.11.196-.21.349-.318.493a.137.137 0 0 0 0 .195c.109.102.209.246.373.348-.01.05.1.05.1 0zm.527-1.035c.11-.195.155-.39.21-.594v-.195c-.11-.102-.21-.195-.264-.297-.055-.05-.11 0-.11.051-.108.195-.154.39-.263.594a.137.137 0 0 0 0 .195l.318.297c.055.05.11 0 .11-.051zm.419-1.179c.055-.246.11-.441.155-.687 0-.102 0-.195-.055-.195-.055-.102-.155-.144-.264-.246-.054-.05-.054 0-.109.102-.055.246-.11.44-.21.636v.195c.11.102.21.195.265.297.163.05.218 0 .218-.102zm.21-1.323v-.831c0-.102-.055-.195-.055-.246l-.155-.144s-.055.05-.055.144c0 .297-.054.543-.054.789 0 .101 0 .195.054.195.055.101.155.144.21.246.054-.009.054-.051.054-.153zm-2.53 6.827c.155-.144.264-.297.418-.44a.137.137 0 0 0 0-.196c-.109-.144-.263-.246-.373-.39-.054-.05-.109-.05-.154 0-.155.144-.264.297-.419.39a.137.137 0 0 0 0 .195c.155.144.264.297.419.39 0 .102.054.102.109.051zm.792-.78c.109-.144.263-.297.373-.441a.137.137 0 0 0 0-.195c-.11-.144-.264-.246-.373-.39-.055-.051-.11-.051-.155 0-.11.144-.264.297-.373.44a.137.137 0 0 0 0 .196c.109.144.264.246.373.39 0 .042.1.042.155 0zm1.264-1.874c.11-.195.155-.39.264-.594.055-.051 0-.144 0-.195-.11-.102-.21-.195-.318-.348-.055-.05-.11 0-.155.051-.11.195-.21.348-.264.543a.137.137 0 0 0 0 .195c.11.102.21.246.373.348-.01.101.046.05.1 0zm.419-1.077c.054-.196.154-.39.209-.637v-.195c-.11-.101-.21-.195-.264-.296-.055-.051-.11 0-.11.101-.054.195-.154.39-.208.594-.055.05 0 .144 0 .195.109.102.209.195.318.348.01-.009.055-.06.055-.11zm.373-1.23c.054-.246.054-.492.109-.738 0-.102 0-.195-.055-.246l-.264-.246c-.054-.05-.054 0-.054.102l-.155.687c0 .102 0 .195.055.195.109.102.209.195.264.297.045.093.045.05.1-.051zm.1-1.425c0-.297-.055-.594-.11-.933 0-.144-.054-.246-.054-.246l-.155-.144v.144c.055.297.055.594.055.882 0 .102 0 .195.054.246.055.102.155.144.21.246v-.195zm-.31-1.917c-.154-.39-.318-.882-.636-1.475-.11-.246-.21-.39-.21-.39v.194c0 .297 0 .543-.054.79v.194l.154.144s.055-.05.055-.144c0-.297-.055-.593-.11-.933-.054-.144-.054-.246-.054-.246s.055.102.055.246c.109.348.109.687.154.984 0 .102 0 .195.055.195l.155.144v-.195a5.853 5.853 0 0 0-.264-1.128c-.055-.144-.11-.296-.11-.296s.055.144.11.296c.154.441.264.832.318 1.128 0 .102.055.195.055.246l.155.144v-.195c-.11-.39-.21-.788-.419-1.28a1.91 1.91 0 0 1-.155-.348s.11.144.155.348c.21.492.373.933.473 1.323.064.161.064.254.118.254l.155.144c-.11.102-.11.009-.155-.144zm-5.013 7.472c.155-.102.319-.246.474-.348.054-.05.054-.101 0-.144-.155-.144-.264-.297-.419-.39a.162.162 0 0 0-.21 0c-.154.102-.318.246-.472.348-.055.05-.055.101 0 .144.154.144.264.297.418.44.055-.05.164 0 .21-.05z"/>
        <path d="m26.611 10.786 5.113-4.88h-4.338l-2.948 2.785-2.94-2.793h-.624c.05.136.141.33.241.514.292.746.625 1.814.966 3.114.966 1.067 1.4 2.512 1.3 4.326l1.015-.98 3.14 3.026h4.338l-4.872-4.743-.39-.37M92.874 16.846h-4.31l-2.349-2.874h-4.994v2.874h-3.228V11.35h9.11c.49 0 .929-.104 1.275-.305.347-.2.541-.505.541-.905 0-.401-.143-.758-.49-.958-.296-.2-.735-.305-1.318-.305h-9.118l2.104-2.822h6.71c.591 0 1.225.052 1.859.148.633.104 1.225.305 1.715.61.54.304.93.705 1.276 1.158.346.453.49 1.106.49 1.916 0 .4-.05.81-.194 1.21-.144.358-.296.706-.541 1.01-.245.306-.54.558-.879.759-.346.2-.735.357-1.124.452.195.149.389.305.592.558l.879.906 1.994 2.064m-28.147 0 1.96-2.779h3.625c.347 0 .634 0 .88.053-.144-.2-.296-.453-.49-.758-.195-.305-.39-.557-.542-.81l-1.859-2.874-4.892 7.168h-3.82l6.71-9.737c.194-.305.49-.61.828-.854.346-.252.735-.357 1.276-.357.49 0 .879.105 1.225.357.346.253.592.505.828.854l6.507 9.737H64.727zm-5.476-2.726-2.104 2.778h-9.252v-10.8h3.228v8.022h8.128zm-12.438 0-2.053 2.778H34.67v-10.8h12.092L44.658 8.92h-6.751v1.315h8.272L44.32 12.71h-6.413v1.463h8.906v-.052zM5.104 16.846l1.96-2.779h3.575c.346 0 .634 0 .879.053-.144-.2-.296-.453-.49-.758-.195-.305-.389-.557-.541-.81l-1.86-2.874-4.892 7.168H-.126l6.7-9.737c.195-.305.49-.61.829-.854.346-.252.735-.357 1.276-.357.49 0 .878.105 1.225.357.346.253.591.505.828.854l6.506 9.737H5.104z"/>
    </g>
</svg>
